<svg width="82" height="77" viewBox="0 0 82 77" fill="none" xmlns="http://www.w3.org/2000/svg">
<path fill-rule="evenodd" clip-rule="evenodd" d="M1 48C1 30.8792 14.8792 17 32 17H33C49.5685 17 63 30.4315 63 47L63 47.0158C60.8117 45.7364 58.2449 45 55.5 45C47.4919 45 41 51.268 41 59C41 62.2859 42.1725 65.3075 44.1356 67.6959C42.6899 67.2457 41.1286 67 39.5 67C32.6409 67 26.9766 71.3575 26.1138 77H1V48Z" fill="#F2BE97"/>
<path d="M53.8064 27.8365C62.71 21.2994 75.2271 23.2178 81.7643 32.1213V32.1213L80.9582 32.7131C72.0547 39.2503 59.5375 37.3319 53.0004 28.4284V28.4284L53.8064 27.8365Z" fill="#4BB75C"/>
<path d="M54.4455 28.2776C46.4675 20.6383 46.1928 7.97802 53.8321 -8.34465e-06V-8.34465e-06L54.5544 0.691597C62.5324 8.33086 62.807 20.9912 55.1678 28.9692V28.9692L54.4455 28.2776Z" fill="#4BB75C"/>
<path d="M53.4455 28.2776C45.4675 20.6383 45.1928 7.97802 52.8321 -8.34465e-06V-8.34465e-06L53.5544 0.691597C61.5324 8.33086 61.807 20.9912 54.1678 28.9692V28.9692L53.4455 28.2776Z" fill="#76C883"/>
<path d="M53.8064 26.8365C62.71 20.2994 75.2271 22.2178 81.7643 31.1213V31.1213L80.9582 31.7131C72.0547 38.2503 59.5375 36.3319 53.0004 27.4284V27.4284L53.8064 26.8365Z" fill="#76C883"/>
<path d="M54.2508 25.3623C57.0177 14.6688 67.9296 8.24305 78.6231 11.01V11.01L78.3726 11.9781C75.6056 22.6716 64.6938 29.0974 54.0003 26.3305V26.3305L54.2508 25.3623Z" fill="#4BB75C"/>
<path d="M51.2508 25.3623C54.0177 14.6688 64.9296 8.24305 75.6231 11.01V11.01L75.3726 11.9781C72.6056 22.6716 61.6938 29.0974 51.0003 26.3305V26.3305L51.2508 25.3623Z" fill="#4BB75C"/>
<path d="M53.2508 24.3623C56.0177 13.6688 66.9296 7.24305 77.6231 10.01V10.01L77.3726 10.9781C74.6056 21.6716 63.6938 28.0974 53.0003 25.3305V25.3305L53.2508 24.3623Z" fill="#76C883"/>
<path fill-rule="evenodd" clip-rule="evenodd" d="M0 46C0 28.8792 13.8792 15 31 15H32C48.5685 15 62 28.4315 62 45C62 45.5456 61.9854 46.0878 61.9567 46.6263C59.5763 44.9734 56.6559 44 53.5 44C45.4919 44 39 50.268 39 58C39 60.7342 39.8118 63.2854 41.2154 65.441C40.0351 65.1538 38.7886 65 37.5 65C30.6409 65 24.9766 69.3575 24.1138 75H0V46Z" fill="#FFD7BA"/>
<path d="M18.2993 18.9473C18.1133 18.7432 17.7971 18.7284 17.593 18.9144C17.3888 19.1004 17.3741 19.4166 17.5601 19.6207L18.2993 18.9473ZM17.5601 19.6207L44.6304 49.3367L45.3696 48.6633L18.2993 18.9473L17.5601 19.6207Z" fill="#F2BE97"/>
<path d="M5.03772 31.0418C4.85243 30.8371 4.53624 30.8213 4.33149 31.0066C4.12674 31.1919 4.11097 31.5081 4.29627 31.7129L5.03772 31.0418ZM4.29627 31.7129L35.6293 66.3355L36.3707 65.6645L5.03772 31.0418L4.29627 31.7129Z" fill="#F2BE97"/>
</svg>
