<svg width="131" height="101" viewBox="0 0 131 101" fill="none" xmlns="http://www.w3.org/2000/svg">
<path d="M0.157595 5.0324L66.3704 5.1105C92.0796 5.14083 112.896 26.4257 112.866 52.6516C112.835 78.8775 91.9688 100.113 66.2596 100.083L0.0467922 100.005L0.157595 5.0324Z" fill="#FFD7BA"/>
<path d="M121.793 33.0318C126.395 33.0394 130.12 36.8518 130.112 41.5469C130.104 46.2421 126.367 50.042 121.764 50.0343L100.844 49.9994C96.2414 49.9917 92.5166 46.1793 92.5244 41.4842C92.5323 36.7891 96.2698 32.9892 100.872 32.9968L121.793 33.0318Z" fill="#FFD7BA"/>
<path d="M121.757 54.6714C126.359 54.679 130.084 58.4914 130.076 63.1865C130.068 67.8817 126.331 71.6816 121.728 71.6739L100.808 71.639C96.2053 71.6313 92.4805 67.8189 92.4883 63.1238C92.4961 58.4287 96.2337 54.6288 100.836 54.6364L121.757 54.6714Z" fill="#FFD7BA"/>
<path d="M0.166384 0.0323955L66.3791 0.110504C92.0884 0.140832 112.905 21.4257 112.874 47.6516C112.844 73.8775 91.9776 95.1133 66.2684 95.0829L0.0555812 95.0048L0.166384 0.0323955Z" fill="white"/>
<path d="M121.801 28.0318C126.404 28.0394 130.129 31.8518 130.121 36.5469C130.113 41.2421 126.376 45.042 121.773 45.0343L100.853 44.9994C96.2502 44.9917 92.5254 41.1793 92.5332 36.4842C92.5411 31.7891 96.2786 27.9892 100.881 27.9968L121.801 28.0318Z" fill="white"/>
<path d="M121.765 49.6714C126.368 49.679 130.093 53.4914 130.085 58.1865C130.077 62.8817 126.34 66.6816 121.737 66.6739L100.817 66.639C96.2141 66.6313 92.4893 62.8189 92.4971 58.1238C92.5049 53.4287 96.2425 49.6288 100.845 49.6364L121.765 49.6714Z" fill="white"/>
<ellipse cx="90.2215" cy="27.1444" rx="3.99409" ry="3.9154" transform="rotate(90.0956 90.2215 27.1444)" fill="#FF9F9F"/>
<ellipse cx="90.1561" cy="66.1443" rx="3.99409" ry="3.9154" transform="rotate(90.0956 90.1561 66.1443)" fill="#FF9F9F"/>
<ellipse cx="93.2742" cy="61.6722" rx="3.99409" ry="3.9154" transform="rotate(90.0956 93.2742 61.6722)" fill="#484848"/>
<ellipse cx="93.3221" cy="32.9149" rx="3.99409" ry="3.9154" transform="rotate(90.0956 93.3221 32.9149)" fill="#484848"/>
<path d="M94.2325 43.3427C94.3355 43.0865 94.2112 42.7953 93.955 42.6923C93.6988 42.5893 93.4076 42.7136 93.3046 42.9698L94.2325 43.3427ZM93.3046 42.9698L91.2963 47.9664L92.2241 48.3394L94.2325 43.3427L93.3046 42.9698Z" fill="#484848"/>
<path d="M93.6411 52.9541C93.7584 53.2041 94.0561 53.3117 94.3061 53.1944C94.5561 53.0772 94.6637 52.7794 94.5464 52.5294L93.6411 52.9541ZM94.5464 52.5294L92.2594 47.654L91.3541 48.0787L93.6411 52.9541L94.5464 52.5294Z" fill="#484848"/>
<path d="M19.3575 40.012C19.6695 40.168 19.8495 40.414 19.8975 40.75C19.9575 41.086 19.8735 41.392 19.6455 41.668C19.4895 41.884 19.2855 42.004 19.0335 42.028C18.7935 42.052 18.5475 42.004 18.2955 41.884C18.0075 41.752 17.7015 41.65 17.3775 41.578C17.0655 41.506 16.7355 41.47 16.3875 41.47C15.7395 41.47 15.1575 41.572 14.6415 41.776C14.1375 41.98 13.7055 42.274 13.3455 42.658C12.9855 43.03 12.7095 43.474 12.5175 43.99C12.3375 44.506 12.2475 45.076 12.2475 45.7C12.2475 46.432 12.3495 47.068 12.5535 47.608C12.7695 48.148 13.0635 48.598 13.4355 48.958C13.8075 49.318 14.2455 49.588 14.7495 49.768C15.2535 49.936 15.7995 50.02 16.3875 50.02C16.7115 50.02 17.0355 49.99 17.3595 49.93C17.6835 49.87 17.9955 49.762 18.2955 49.606C18.5475 49.486 18.7935 49.444 19.0335 49.48C19.2855 49.516 19.4955 49.642 19.6635 49.858C19.9035 50.158 19.9875 50.47 19.9155 50.794C19.8555 51.106 19.6755 51.334 19.3755 51.478C19.0635 51.634 18.7395 51.766 18.4035 51.874C18.0795 51.97 17.7495 52.042 17.4135 52.09C17.0775 52.15 16.7355 52.18 16.3875 52.18C15.5235 52.18 14.7015 52.042 13.9215 51.766C13.1535 51.49 12.4635 51.082 11.8515 50.542C11.2515 50.002 10.7775 49.33 10.4295 48.526C10.0815 47.71 9.9075 46.768 9.9075 45.7C9.9075 44.776 10.0635 43.924 10.3755 43.144C10.6995 42.364 11.1495 41.692 11.7255 41.128C12.3135 40.552 13.0035 40.108 13.7955 39.796C14.5875 39.472 15.4515 39.31 16.3875 39.31C16.9155 39.31 17.4315 39.37 17.9355 39.49C18.4395 39.61 18.9135 39.784 19.3575 40.012ZM30.9847 47.194C30.9847 48.178 30.7627 49.048 30.3187 49.804C29.8867 50.548 29.2987 51.13 28.5547 51.55C27.8227 51.97 27.0007 52.18 26.0887 52.18C25.1767 52.18 24.3487 51.97 23.6047 51.55C22.8727 51.13 22.2847 50.548 21.8407 49.804C21.4087 49.048 21.1927 48.178 21.1927 47.194C21.1927 46.21 21.4087 45.346 21.8407 44.602C22.2847 43.846 22.8727 43.258 23.6047 42.838C24.3487 42.406 25.1767 42.19 26.0887 42.19C27.0007 42.19 27.8227 42.406 28.5547 42.838C29.2987 43.258 29.8867 43.846 30.3187 44.602C30.7627 45.346 30.9847 46.21 30.9847 47.194ZM28.8247 47.194C28.8247 46.582 28.6987 46.054 28.4467 45.61C28.2067 45.154 27.8767 44.8 27.4567 44.548C27.0487 44.296 26.5927 44.17 26.0887 44.17C25.5847 44.17 25.1227 44.296 24.7027 44.548C24.2947 44.8 23.9647 45.154 23.7127 45.61C23.4727 46.054 23.3527 46.582 23.3527 47.194C23.3527 47.794 23.4727 48.322 23.7127 48.778C23.9647 49.222 24.2947 49.57 24.7027 49.822C25.1227 50.074 25.5847 50.2 26.0887 50.2C26.5927 50.2 27.0487 50.074 27.4567 49.822C27.8767 49.57 28.2067 49.222 28.4467 48.778C28.6987 48.322 28.8247 47.794 28.8247 47.194ZM38.0231 42.19C38.9111 42.19 39.5831 42.376 40.0391 42.748C40.5071 43.12 40.8251 43.618 40.9931 44.242C41.1731 44.854 41.2631 45.538 41.2631 46.294V50.902C41.2631 51.214 41.1611 51.478 40.9571 51.694C40.7531 51.898 40.4951 52 40.1831 52C39.8711 52 39.6131 51.898 39.4091 51.694C39.2051 51.478 39.1031 51.214 39.1031 50.902V46.294C39.1031 45.898 39.0491 45.544 38.9411 45.232C38.8451 44.908 38.6651 44.65 38.4011 44.458C38.1371 44.266 37.7591 44.17 37.2671 44.17C36.7871 44.17 36.3791 44.266 36.0431 44.458C35.7191 44.65 35.4671 44.908 35.2871 45.232C35.1191 45.544 35.0351 45.898 35.0351 46.294V50.902C35.0351 51.214 34.9331 51.478 34.7291 51.694C34.5251 51.898 34.2671 52 33.9551 52C33.6431 52 33.3851 51.898 33.1811 51.694C32.9771 51.478 32.8751 51.214 32.8751 50.902V43.468C32.8751 43.156 32.9771 42.898 33.1811 42.694C33.3851 42.478 33.6431 42.37 33.9551 42.37C34.2671 42.37 34.5251 42.478 34.7291 42.694C34.9331 42.898 35.0351 43.156 35.0351 43.468V44.242L34.7651 44.188C34.8731 43.984 35.0291 43.768 35.2331 43.54C35.4371 43.3 35.6771 43.078 35.9531 42.874C36.2291 42.67 36.5411 42.508 36.8891 42.388C37.2371 42.256 37.6151 42.19 38.0231 42.19ZM43.7057 42.55H47.9717C48.2597 42.55 48.4997 42.646 48.6917 42.838C48.8837 43.03 48.9797 43.27 48.9797 43.558C48.9797 43.834 48.8837 44.068 48.6917 44.26C48.4997 44.44 48.2597 44.53 47.9717 44.53H43.7057C43.4177 44.53 43.1777 44.434 42.9857 44.242C42.7937 44.05 42.6977 43.81 42.6977 43.522C42.6977 43.246 42.7937 43.018 42.9857 42.838C43.1777 42.646 43.4177 42.55 43.7057 42.55ZM45.6317 40.3C45.9437 40.3 46.1957 40.408 46.3877 40.624C46.5917 40.828 46.6937 41.086 46.6937 41.398V49.408C46.6937 49.576 46.7237 49.714 46.7837 49.822C46.8557 49.93 46.9457 50.008 47.0537 50.056C47.1737 50.104 47.2997 50.128 47.4317 50.128C47.5757 50.128 47.7077 50.104 47.8277 50.056C47.9477 49.996 48.0857 49.966 48.2417 49.966C48.4097 49.966 48.5597 50.044 48.6917 50.2C48.8357 50.356 48.9077 50.572 48.9077 50.848C48.9077 51.184 48.7217 51.46 48.3497 51.676C47.9897 51.892 47.5997 52 47.1797 52C46.9277 52 46.6457 51.982 46.3337 51.946C46.0337 51.898 45.7457 51.796 45.4697 51.64C45.2057 51.472 44.9837 51.22 44.8037 50.884C44.6237 50.548 44.5337 50.086 44.5337 49.498V41.398C44.5337 41.086 44.6357 40.828 44.8397 40.624C45.0557 40.408 45.3197 40.3 45.6317 40.3ZM58.847 42.19C59.159 42.19 59.417 42.292 59.621 42.496C59.825 42.7 59.927 42.964 59.927 43.288V50.902C59.927 51.214 59.825 51.478 59.621 51.694C59.417 51.898 59.159 52 58.847 52C58.535 52 58.277 51.898 58.073 51.694C57.869 51.478 57.767 51.214 57.767 50.902V50.02L58.163 50.182C58.163 50.338 58.079 50.53 57.911 50.758C57.743 50.974 57.515 51.19 57.227 51.406C56.939 51.622 56.597 51.808 56.201 51.964C55.817 52.108 55.397 52.18 54.941 52.18C54.113 52.18 53.363 51.97 52.691 51.55C52.019 51.118 51.485 50.53 51.089 49.786C50.705 49.03 50.513 48.166 50.513 47.194C50.513 46.21 50.705 45.346 51.089 44.602C51.485 43.846 52.013 43.258 52.673 42.838C53.333 42.406 54.065 42.19 54.869 42.19C55.385 42.19 55.859 42.268 56.291 42.424C56.723 42.58 57.095 42.778 57.407 43.018C57.731 43.258 57.977 43.504 58.145 43.756C58.325 43.996 58.415 44.2 58.415 44.368L57.767 44.602V43.288C57.767 42.976 57.869 42.718 58.073 42.514C58.277 42.298 58.535 42.19 58.847 42.19ZM55.211 50.2C55.739 50.2 56.201 50.068 56.597 49.804C56.993 49.54 57.299 49.18 57.515 48.724C57.743 48.268 57.857 47.758 57.857 47.194C57.857 46.618 57.743 46.102 57.515 45.646C57.299 45.19 56.993 44.83 56.597 44.566C56.201 44.302 55.739 44.17 55.211 44.17C54.695 44.17 54.239 44.302 53.843 44.566C53.447 44.83 53.135 45.19 52.907 45.646C52.691 46.102 52.583 46.618 52.583 47.194C52.583 47.758 52.691 48.268 52.907 48.724C53.135 49.18 53.447 49.54 53.843 49.804C54.239 50.068 54.695 50.2 55.211 50.2ZM66.5497 42.19C67.2337 42.19 67.8277 42.262 68.3317 42.406C68.8477 42.55 69.2437 42.754 69.5197 43.018C69.8077 43.27 69.9517 43.576 69.9517 43.936C69.9517 44.176 69.8797 44.404 69.7357 44.62C69.5917 44.824 69.3817 44.926 69.1057 44.926C68.9137 44.926 68.7517 44.902 68.6197 44.854C68.4997 44.794 68.3917 44.722 68.2957 44.638C68.1997 44.554 68.0857 44.476 67.9537 44.404C67.8337 44.332 67.6477 44.278 67.3957 44.242C67.1557 44.194 66.9757 44.17 66.8557 44.17C66.2437 44.17 65.7217 44.302 65.2897 44.566C64.8697 44.83 64.5457 45.19 64.3177 45.646C64.0897 46.09 63.9757 46.606 63.9757 47.194C63.9757 47.77 64.0897 48.286 64.3177 48.742C64.5577 49.186 64.8817 49.54 65.2897 49.804C65.7097 50.068 66.1897 50.2 66.7297 50.2C67.0297 50.2 67.2877 50.182 67.5037 50.146C67.7197 50.11 67.8997 50.056 68.0437 49.984C68.2117 49.888 68.3617 49.786 68.4937 49.678C68.6257 49.57 68.8237 49.516 69.0877 49.516C69.3997 49.516 69.6397 49.618 69.8077 49.822C69.9757 50.014 70.0597 50.254 70.0597 50.542C70.0597 50.842 69.8917 51.118 69.5557 51.37C69.2197 51.61 68.7757 51.808 68.2237 51.964C67.6837 52.108 67.0957 52.18 66.4597 52.18C65.5117 52.18 64.6897 51.964 63.9937 51.532C63.2977 51.088 62.7577 50.488 62.3737 49.732C62.0017 48.976 61.8157 48.13 61.8157 47.194C61.8157 46.21 62.0137 45.346 62.4097 44.602C62.8177 43.846 63.3757 43.258 64.0837 42.838C64.8037 42.406 65.6257 42.19 66.5497 42.19ZM71.7253 42.55H75.9913C76.2793 42.55 76.5193 42.646 76.7113 42.838C76.9033 43.03 76.9993 43.27 76.9993 43.558C76.9993 43.834 76.9033 44.068 76.7113 44.26C76.5193 44.44 76.2793 44.53 75.9913 44.53H71.7253C71.4373 44.53 71.1973 44.434 71.0053 44.242C70.8133 44.05 70.7173 43.81 70.7173 43.522C70.7173 43.246 70.8133 43.018 71.0053 42.838C71.1973 42.646 71.4373 42.55 71.7253 42.55ZM73.6513 40.3C73.9633 40.3 74.2153 40.408 74.4073 40.624C74.6113 40.828 74.7133 41.086 74.7133 41.398V49.408C74.7133 49.576 74.7433 49.714 74.8033 49.822C74.8753 49.93 74.9653 50.008 75.0733 50.056C75.1933 50.104 75.3193 50.128 75.4513 50.128C75.5953 50.128 75.7273 50.104 75.8473 50.056C75.9673 49.996 76.1053 49.966 76.2613 49.966C76.4293 49.966 76.5793 50.044 76.7113 50.2C76.8553 50.356 76.9273 50.572 76.9273 50.848C76.9273 51.184 76.7413 51.46 76.3693 51.676C76.0093 51.892 75.6193 52 75.1993 52C74.9473 52 74.6653 51.982 74.3533 51.946C74.0533 51.898 73.7653 51.796 73.4893 51.64C73.2253 51.472 73.0033 51.22 72.8233 50.884C72.6433 50.548 72.5533 50.086 72.5533 49.498V41.398C72.5533 41.086 72.6553 40.828 72.8593 40.624C73.0753 40.408 73.3393 40.3 73.6513 40.3Z" fill="#FFD7BA"/>
</svg>
