<svg width="119" height="111" viewBox="0 0 119 111" fill="none" xmlns="http://www.w3.org/2000/svg">
<ellipse cx="59.5" cy="55.5" rx="59.5" ry="55.5" fill="white"/>
<ellipse cx="59.5" cy="55.5" rx="55.5" ry="52.5" fill="#FF9F9F"/>
<path d="M45.7931 87.5712C37.0588 87.7969 29.1932 84.4606 25.5152 77.4649C21.8371 70.4692 21.764 65.1249 23.4672 57.4136C25.1704 49.7022 31.728 42.9381 38.0392 38.0118C44.3505 33.0856 52.2022 30.4451 60.2563 30.5404C68.3105 30.6356 74.392 32.4425 82.4039 38.7389C88.3008 43.3732 92.7212 46.9738 96.4945 57.0616C99.3239 64.6273 97.088 75.0796 93.9986 79.0109C89.2829 85.0117 84.2836 88.4401 72.7865 88.1805L66.3024 87.3879L59.8161 85.0866L52.8059 87.0833L45.7931 87.5712Z" fill="white"/>
<circle cx="46.7489" cy="68.213" r="4.5" transform="rotate(1.29319 46.7489 68.213)" fill="#FF9F9F"/>
<circle cx="71.742" cy="68.7772" r="4.5" transform="rotate(1.29319 71.742 68.7772)" fill="#FF9F9F"/>
<rect x="56.7109" y="67.2695" width="5.85229" height="2" rx="1" transform="rotate(44.994 56.7109 67.2695)" fill="#FF9F9F"/>
<rect width="6.13399" height="2" rx="1" transform="matrix(-0.775479 0.631373 0.631373 0.775479 62.873 67.4254)" fill="#FF9F9F"/>
<ellipse cx="41.4336" cy="74.5" rx="2" ry="1.5" fill="#FF9F9F"/>
<ellipse cx="76.4336" cy="74.5" rx="2" ry="1.5" fill="#FF9F9F"/>
<ellipse cx="51.9336" cy="28" rx="6.5" ry="12" fill="white"/>
<ellipse cx="51.9336" cy="28" rx="6.5" ry="12" fill="white"/>
<ellipse cx="67.9336" cy="28" rx="6.5" ry="12" fill="white"/>
<ellipse cx="67.9336" cy="28" rx="6.5" ry="12" fill="white"/>
</svg>
