<svg width="50" height="48" viewBox="0 0 50 48" fill="none" xmlns="http://www.w3.org/2000/svg">
<path d="M49.8424 23.8001C49.8424 10.6863 38.6528 0 24.9212 0C11.1896 0 0 10.6863 0 23.8001C0 30.7022 3.11515 36.914 8.04955 41.2694C8.04955 41.2932 8.04955 41.2932 8.02463 41.317C8.27384 41.555 8.5729 41.7454 8.82211 41.9596C8.97164 42.0786 9.09624 42.1976 9.24577 42.2928C9.69435 42.6498 10.1928 42.983 10.6663 43.3162C10.8407 43.4352 10.9903 43.5304 11.1647 43.6494C11.6382 43.9588 12.1366 44.2444 12.66 44.5062C12.8344 44.6014 13.0338 44.7204 13.2082 44.8156C13.7067 45.0774 14.23 45.3154 14.7783 45.5296C14.9776 45.6248 15.177 45.72 15.3764 45.7914C15.9247 46.0056 16.4729 46.196 17.0212 46.3626C17.2206 46.434 17.4199 46.5054 17.6193 46.553C18.2174 46.7196 18.8155 46.8624 19.4136 47.0052C19.5881 47.0528 19.7625 47.1004 19.9619 47.1242C20.6597 47.267 21.3575 47.3622 22.0802 47.4336C22.1799 47.4336 22.2796 47.4574 22.3792 47.4812C23.2266 47.5526 24.0739 47.6002 24.9212 47.6002C25.7685 47.6002 26.6159 47.5526 27.4383 47.4812C27.5379 47.4812 27.6376 47.4574 27.7373 47.4336C28.46 47.3622 29.1578 47.267 29.8556 47.1242C30.0301 47.1004 30.2045 47.029 30.4039 47.0052C31.002 46.8624 31.625 46.7434 32.1982 46.553C32.3976 46.4816 32.5969 46.4102 32.7963 46.3626C33.3446 46.1722 33.9178 46.0056 34.4411 45.7914C34.6405 45.72 34.8399 45.6248 35.0392 45.5296C35.5626 45.3154 36.0859 45.0774 36.6093 44.8156C36.8086 44.7204 36.9831 44.6014 37.1575 44.5062C37.656 44.2206 38.1544 43.9588 38.6528 43.6494C38.8272 43.5542 38.9768 43.4352 39.1512 43.3162C39.6496 42.983 40.1232 42.6498 40.5717 42.2928C40.7213 42.1738 40.8459 42.0548 40.9954 41.9596C41.2695 41.7454 41.5437 41.5312 41.7929 41.317C41.7929 41.2932 41.7929 41.2932 41.768 41.2694C46.7273 36.914 49.8424 30.7022 49.8424 23.8001ZM37.2323 35.6288C30.4786 31.2972 19.4136 31.2972 12.6101 35.6288C11.5136 36.319 10.6164 37.1282 9.8688 38.0088C6.08078 34.3436 3.73818 29.3217 3.73818 23.8001C3.73818 12.6379 13.2332 3.57002 24.9212 3.57002C36.6093 3.57002 46.1042 12.6379 46.1042 23.8001C46.1042 29.3217 43.7617 34.3436 39.9736 38.0088C39.2509 37.1282 38.3288 36.319 37.2323 35.6288Z" fill="#76C883"/>
<path d="M24.9216 11.7328C19.7629 11.7328 15.5762 15.7312 15.5762 20.6579C15.5762 25.4893 19.5386 29.4163 24.797 29.5591H25.0213H25.1958H25.2456C30.2797 29.3925 34.2422 25.4893 34.2671 20.6579C34.2671 15.7312 30.0803 11.7328 24.9216 11.7328Z" fill="#76C883"/>
</svg>
