<svg width="131" height="101" viewBox="0 0 131 101" fill="none" xmlns="http://www.w3.org/2000/svg">
<path d="M0.15759 5.0324L66.3704 5.1105C92.0796 5.14083 112.896 26.4257 112.866 52.6516C112.835 78.8775 91.9688 100.113 66.2596 100.083L0.0467882 100.005L0.15759 5.0324Z" fill="#FF9F9F"/>
<path d="M121.793 33.0318C126.395 33.0394 130.12 36.8518 130.112 41.5469C130.104 46.2421 126.367 50.042 121.764 50.0343L100.844 49.9994C96.2414 49.9917 92.5166 46.1793 92.5244 41.4842C92.5323 36.7891 96.2698 32.9892 100.872 32.9968L121.793 33.0318Z" fill="#FF9F9F"/>
<path d="M121.757 54.6714C126.359 54.679 130.084 58.4914 130.076 63.1865C130.068 67.8816 126.331 71.6816 121.728 71.6739L100.808 71.639C96.2053 71.6313 92.4805 67.8189 92.4883 63.1238C92.4961 58.4287 96.2337 54.6288 100.836 54.6364L121.757 54.6714Z" fill="#FF9F9F"/>
<path d="M0.166379 0.0323955L66.3791 0.110504C92.0884 0.140832 112.905 21.4257 112.874 47.6516C112.844 73.8775 91.9776 95.1133 66.2684 95.0829L0.0555773 95.0048L0.166379 0.0323955Z" fill="white"/>
<path d="M121.801 28.0318C126.404 28.0394 130.129 31.8518 130.121 36.5469C130.113 41.2421 126.376 45.042 121.773 45.0343L100.853 44.9994C96.2502 44.9917 92.5254 41.1793 92.5332 36.4842C92.5411 31.7891 96.2786 27.9892 100.881 27.9968L121.801 28.0318Z" fill="white"/>
<path d="M121.765 49.6714C126.368 49.679 130.093 53.4914 130.085 58.1865C130.077 62.8816 126.34 66.6816 121.737 66.6739L100.817 66.639C96.2141 66.6313 92.4893 62.8189 92.4971 58.1238C92.5049 53.4287 96.2425 49.6288 100.845 49.6364L121.765 49.6714Z" fill="white"/>
<ellipse cx="90.2215" cy="27.1444" rx="3.99409" ry="3.9154" transform="rotate(90.0956 90.2215 27.1444)" fill="#FF9F9F"/>
<ellipse cx="90.1561" cy="66.1443" rx="3.99409" ry="3.9154" transform="rotate(90.0956 90.1561 66.1443)" fill="#FF9F9F"/>
<ellipse cx="93.2742" cy="61.6722" rx="3.99409" ry="3.9154" transform="rotate(90.0956 93.2742 61.6722)" fill="#484848"/>
<ellipse cx="93.3221" cy="32.9149" rx="3.99409" ry="3.9154" transform="rotate(90.0956 93.3221 32.9149)" fill="#484848"/>
<path d="M94.2325 43.3427C94.3355 43.0865 94.2112 42.7953 93.955 42.6923C93.6988 42.5893 93.4076 42.7136 93.3046 42.9698L94.2325 43.3427ZM93.3046 42.9698L91.2963 47.9664L92.2241 48.3394L94.2325 43.3427L93.3046 42.9698Z" fill="#484848"/>
<path d="M93.6411 52.9541C93.7584 53.2041 94.0561 53.3117 94.3061 53.1944C94.5561 53.0772 94.6637 52.7794 94.5464 52.5294L93.6411 52.9541ZM94.5464 52.5294L92.2594 47.654L91.3541 48.0787L93.6411 52.9541L94.5464 52.5294Z" fill="#484848"/>
<path d="M22.9955 43.226L19.1075 52.37C19.0235 52.598 18.8915 52.778 18.7115 52.91C18.5435 53.03 18.3575 53.09 18.1535 53.09C17.8295 53.09 17.5895 53 17.4335 52.82C17.2775 52.64 17.1995 52.418 17.1995 52.154C17.1995 52.046 17.2175 51.932 17.2535 51.812L21.7355 41.048C21.8315 40.808 21.9755 40.622 22.1675 40.49C22.3715 40.358 22.5875 40.304 22.8155 40.328C23.0315 40.328 23.2295 40.394 23.4095 40.526C23.6015 40.646 23.7395 40.82 23.8235 41.048L28.2515 51.596C28.3115 51.752 28.3415 51.896 28.3415 52.028C28.3415 52.352 28.2335 52.61 28.0175 52.802C27.8135 52.994 27.5855 53.09 27.3335 53.09C27.1175 53.09 26.9195 53.024 26.7395 52.892C26.5715 52.76 26.4395 52.58 26.3435 52.352L22.4735 43.334L22.9955 43.226ZM19.6655 50.174L20.6555 48.104H25.5155L25.8575 50.174H19.6655ZM34.6716 43.19C35.5116 43.19 36.2616 43.406 36.9216 43.838C37.5936 44.258 38.1216 44.84 38.5056 45.584C38.9016 46.328 39.0996 47.192 39.0996 48.176C39.0996 49.16 38.9016 50.03 38.5056 50.786C38.1216 51.53 37.5996 52.118 36.9396 52.55C36.2916 52.97 35.5596 53.18 34.7436 53.18C34.2636 53.18 33.8136 53.102 33.3936 52.946C32.9736 52.79 32.6016 52.592 32.2776 52.352C31.9656 52.112 31.7196 51.872 31.5396 51.632C31.3716 51.38 31.2876 51.17 31.2876 51.002L31.8456 50.768V52.082C31.8456 52.394 31.7436 52.658 31.5396 52.874C31.3356 53.078 31.0776 53.18 30.7656 53.18C30.4536 53.18 30.1956 53.078 29.9916 52.874C29.7876 52.67 29.6856 52.406 29.6856 52.082V40.778C29.6856 40.466 29.7876 40.208 29.9916 40.004C30.1956 39.788 30.4536 39.68 30.7656 39.68C31.0776 39.68 31.3356 39.788 31.5396 40.004C31.7436 40.208 31.8456 40.466 31.8456 40.778V45.35L31.5396 45.188C31.5396 45.032 31.6236 44.846 31.7916 44.63C31.9596 44.402 32.1876 44.18 32.4756 43.964C32.7636 43.736 33.0936 43.55 33.4656 43.406C33.8496 43.262 34.2516 43.19 34.6716 43.19ZM34.4016 45.17C33.8736 45.17 33.4116 45.302 33.0156 45.566C32.6196 45.83 32.3076 46.19 32.0796 46.646C31.8636 47.09 31.7556 47.6 31.7556 48.176C31.7556 48.74 31.8636 49.256 32.0796 49.724C32.3076 50.18 32.6196 50.54 33.0156 50.804C33.4116 51.068 33.8736 51.2 34.4016 51.2C34.9296 51.2 35.3856 51.068 35.7696 50.804C36.1656 50.54 36.4716 50.18 36.6876 49.724C36.9156 49.256 37.0296 48.74 37.0296 48.176C37.0296 47.6 36.9156 47.09 36.6876 46.646C36.4716 46.19 36.1656 45.83 35.7696 45.566C35.3856 45.302 34.9296 45.17 34.4016 45.17ZM50.3304 48.194C50.3304 49.178 50.1084 50.048 49.6644 50.804C49.2324 51.548 48.6444 52.13 47.9004 52.55C47.1684 52.97 46.3464 53.18 45.4344 53.18C44.5224 53.18 43.6944 52.97 42.9504 52.55C42.2184 52.13 41.6304 51.548 41.1864 50.804C40.7544 50.048 40.5384 49.178 40.5384 48.194C40.5384 47.21 40.7544 46.346 41.1864 45.602C41.6304 44.846 42.2184 44.258 42.9504 43.838C43.6944 43.406 44.5224 43.19 45.4344 43.19C46.3464 43.19 47.1684 43.406 47.9004 43.838C48.6444 44.258 49.2324 44.846 49.6644 45.602C50.1084 46.346 50.3304 47.21 50.3304 48.194ZM48.1704 48.194C48.1704 47.582 48.0444 47.054 47.7924 46.61C47.5524 46.154 47.2224 45.8 46.8024 45.548C46.3944 45.296 45.9384 45.17 45.4344 45.17C44.9304 45.17 44.4684 45.296 44.0484 45.548C43.6404 45.8 43.3104 46.154 43.0584 46.61C42.8184 47.054 42.6984 47.582 42.6984 48.194C42.6984 48.794 42.8184 49.322 43.0584 49.778C43.3104 50.222 43.6404 50.57 44.0484 50.822C44.4684 51.074 44.9304 51.2 45.4344 51.2C45.9384 51.2 46.3944 51.074 46.8024 50.822C47.2224 50.57 47.5524 50.222 47.7924 49.778C48.0444 49.322 48.1704 48.794 48.1704 48.194ZM59.3668 43.37C59.6788 43.37 59.9368 43.478 60.1408 43.694C60.3448 43.898 60.4468 44.156 60.4468 44.468V49.04C60.4468 50.312 60.0928 51.32 59.3848 52.064C58.6768 52.808 57.6568 53.18 56.3248 53.18C54.9928 53.18 53.9728 52.808 53.2648 52.064C52.5688 51.32 52.2208 50.312 52.2208 49.04V44.468C52.2208 44.156 52.3228 43.898 52.5268 43.694C52.7308 43.478 52.9888 43.37 53.3008 43.37C53.6128 43.37 53.8708 43.478 54.0748 43.694C54.2788 43.898 54.3808 44.156 54.3808 44.468V49.04C54.3808 49.772 54.5428 50.318 54.8668 50.678C55.1908 51.026 55.6768 51.2 56.3248 51.2C56.9848 51.2 57.4768 51.026 57.8008 50.678C58.1248 50.318 58.2868 49.772 58.2868 49.04V44.468C58.2868 44.156 58.3888 43.898 58.5928 43.694C58.7968 43.478 59.0548 43.37 59.3668 43.37ZM62.8932 43.55H67.1592C67.4472 43.55 67.6872 43.646 67.8792 43.838C68.0712 44.03 68.1672 44.27 68.1672 44.558C68.1672 44.834 68.0712 45.068 67.8792 45.26C67.6872 45.44 67.4472 45.53 67.1592 45.53H62.8932C62.6052 45.53 62.3652 45.434 62.1732 45.242C61.9812 45.05 61.8852 44.81 61.8852 44.522C61.8852 44.246 61.9812 44.018 62.1732 43.838C62.3652 43.646 62.6052 43.55 62.8932 43.55ZM64.8192 41.3C65.1312 41.3 65.3832 41.408 65.5752 41.624C65.7792 41.828 65.8812 42.086 65.8812 42.398V50.408C65.8812 50.576 65.9112 50.714 65.9712 50.822C66.0432 50.93 66.1332 51.008 66.2412 51.056C66.3612 51.104 66.4872 51.128 66.6192 51.128C66.7632 51.128 66.8952 51.104 67.0152 51.056C67.1352 50.996 67.2732 50.966 67.4292 50.966C67.5972 50.966 67.7472 51.044 67.8792 51.2C68.0232 51.356 68.0952 51.572 68.0952 51.848C68.0952 52.184 67.9092 52.46 67.5372 52.676C67.1772 52.892 66.7872 53 66.3672 53C66.1152 53 65.8332 52.982 65.5212 52.946C65.2212 52.898 64.9332 52.796 64.6572 52.64C64.3932 52.472 64.1712 52.22 63.9912 51.884C63.8112 51.548 63.7212 51.086 63.7212 50.498V42.398C63.7212 42.086 63.8232 41.828 64.0272 41.624C64.2432 41.408 64.5072 41.3 64.8192 41.3Z" fill="#FF9F9F"/>
</svg>
