<svg width="82" height="77" viewBox="0 0 82 77" fill="none" xmlns="http://www.w3.org/2000/svg">
<path d="M1 48C1 30.8792 14.8792 17 32 17H33C49.5685 17 63 30.4315 63 47V47C63 63.5685 49.5685 77 33 77H1V48Z" fill="#F2BE97"/>
<path d="M53.8064 27.8365C62.71 21.2994 75.2271 23.2178 81.7643 32.1213V32.1213L80.9582 32.7131C72.0547 39.2503 59.5375 37.3319 53.0004 28.4284V28.4284L53.8064 27.8365Z" fill="#4BB75C"/>
<path d="M54.4455 28.2776C46.4675 20.6383 46.1928 7.97802 53.8321 -8.34465e-06V-8.34465e-06L54.5544 0.691597C62.5324 8.33086 62.807 20.9912 55.1678 28.9692V28.9692L54.4455 28.2776Z" fill="#4BB75C"/>
<path d="M53.4455 28.2776C45.4675 20.6383 45.1928 7.97802 52.8321 -8.34465e-06V-8.34465e-06L53.5544 0.691597C61.5324 8.33086 61.807 20.9912 54.1678 28.9692V28.9692L53.4455 28.2776Z" fill="#76C883"/>
<path d="M53.8064 26.8365C62.71 20.2994 75.2271 22.2178 81.7643 31.1213V31.1213L80.9582 31.7131C72.0547 38.2503 59.5375 36.3319 53.0004 27.4284V27.4284L53.8064 26.8365Z" fill="#76C883"/>
<path d="M54.2508 25.3623C57.0177 14.6688 67.9296 8.24305 78.6231 11.01V11.01L78.3726 11.9781C75.6056 22.6716 64.6938 29.0974 54.0003 26.3305V26.3305L54.2508 25.3623Z" fill="#4BB75C"/>
<path d="M51.2508 25.3623C54.0177 14.6688 64.9296 8.24305 75.6231 11.01V11.01L75.3726 11.9781C72.6056 22.6716 61.6938 29.0974 51.0003 26.3305V26.3305L51.2508 25.3623Z" fill="#4BB75C"/>
<path d="M53.2508 24.3623C56.0177 13.6688 66.9296 7.24305 77.6231 10.01V10.01L77.3726 10.9781C74.6056 21.6716 63.6938 28.0974 53.0003 25.3305V25.3305L53.2508 24.3623Z" fill="#76C883"/>
<path d="M0 46C0 28.8792 13.8792 15 31 15H32C48.5685 15 62 28.4315 62 45V45C62 61.5685 48.5685 75 32 75H0V46Z" fill="#FFD7BA"/>
<path d="M18.2978 18.9457C18.1115 18.7419 17.7956 18.7281 17.5923 18.915C17.389 19.1019 17.3752 19.4186 17.5616 19.6224L18.2978 18.9457ZM17.5616 19.6224L56.0616 61.7356L56.7978 61.0589L18.2978 18.9457L17.5616 19.6224Z" fill="#F2BE97"/>
<path d="M5.03512 31.039C4.84879 30.8352 4.53293 30.8215 4.32962 31.0083C4.12632 31.1952 4.11255 31.5119 4.29887 31.7157L5.03512 31.039ZM4.29887 31.7157L42.7989 73.8289L43.5351 73.1522L5.03512 31.039L4.29887 31.7157Z" fill="#F2BE97"/>
</svg>
