<svg width="69" height="68" viewBox="0 0 69 68" fill="none" xmlns="http://www.w3.org/2000/svg">
<path d="M69 34C69 52.7777 53.5538 68 34.5 68C15.4462 68 0 52.7777 0 34C0 15.2223 15.4462 0 34.5 0C53.5538 0 69 15.2223 69 34Z" fill="#FF9F9F"/>
<path d="M28.9087 41.7427C28.9087 43.6155 27.8641 46.68 25.3916 46.68C22.9191 46.68 21.8745 43.6155 21.8745 41.7427C21.8745 39.87 22.9191 36.8055 25.3916 36.8055C27.8641 36.8055 28.9087 39.87 28.9087 41.7427ZM57.0741 37.2177C57.0741 40.0761 56.7674 43.1048 55.397 45.7302C51.7649 52.594 41.7791 52.4327 34.6299 52.4327C27.3657 52.4327 16.7857 52.6746 13.0099 45.7302C11.6107 43.1316 11.0741 40.0761 11.0741 37.2177C11.0741 33.4632 12.4062 29.9148 15.0512 27.0384C14.5528 25.6227 14.3132 24.1352 14.3132 22.6657C14.3132 20.7392 14.7828 19.7714 15.7124 18.0241C20.0537 18.0241 22.8328 18.8305 26.1391 21.2499C28.9182 20.6316 31.7741 20.3538 34.6395 20.3538C37.227 20.3538 39.8337 20.6137 42.3445 21.1782C45.6028 18.7857 48.382 18.0241 52.6753 18.0241C53.6145 19.7714 54.0745 20.7392 54.0745 22.6657C54.0745 24.1352 53.8253 25.5958 53.3366 26.9847C55.972 29.8879 57.0741 33.4632 57.0741 37.2177ZM50.912 41.7427C50.912 37.8091 48.3532 34.3413 43.8682 34.3413C42.057 34.3413 40.3224 34.646 38.5016 34.8789C37.0737 35.085 35.6457 35.1657 34.1795 35.1657C32.7228 35.1657 31.2949 35.085 29.8574 34.8789C28.0653 34.646 26.3116 34.3413 24.4907 34.3413C20.0057 34.3413 17.447 37.8091 17.447 41.7427C17.447 49.6101 25.152 50.8198 31.8603 50.8198H36.4795C43.2166 50.8198 50.912 49.6191 50.912 41.7427ZM42.9962 36.8055C40.5237 36.8055 39.4791 39.87 39.4791 41.7427C39.4791 43.6155 40.5237 46.68 42.9962 46.68C45.4687 46.68 46.5132 43.6155 46.5132 41.7427C46.5132 39.87 45.4687 36.8055 42.9962 36.8055Z" fill="#FFF8E7"/>
</svg>
