<svg width="131" height="101" viewBox="0 0 131 101" fill="none" xmlns="http://www.w3.org/2000/svg">
<path d="M0.15759 5.0324L66.3704 5.1105C92.0796 5.14083 112.896 26.4257 112.866 52.6516C112.835 78.8775 91.9688 100.113 66.2596 100.083L0.0467882 100.005L0.15759 5.0324Z" fill="#76C883"/>
<path d="M121.793 33.0318C126.395 33.0394 130.12 36.8518 130.112 41.5469C130.104 46.2421 126.367 50.042 121.764 50.0343L100.844 49.9994C96.2414 49.9917 92.5166 46.1793 92.5244 41.4842C92.5323 36.7891 96.2698 32.9892 100.872 32.9968L121.793 33.0318Z" fill="#76C883"/>
<path d="M121.757 54.6714C126.359 54.679 130.084 58.4914 130.076 63.1865C130.068 67.8816 126.331 71.6816 121.728 71.6739L100.808 71.639C96.2053 71.6313 92.4805 67.8189 92.4883 63.1238C92.4961 58.4287 96.2337 54.6288 100.836 54.6364L121.757 54.6714Z" fill="#76C883"/>
<path d="M0.166379 0.0323955L66.3791 0.110504C92.0884 0.140832 112.905 21.4257 112.874 47.6516C112.844 73.8775 91.9776 95.1133 66.2684 95.0829L0.0555773 95.0048L0.166379 0.0323955Z" fill="white"/>
<path d="M121.801 28.0318C126.404 28.0394 130.129 31.8518 130.121 36.5469C130.113 41.2421 126.376 45.042 121.773 45.0343L100.853 44.9994C96.2502 44.9917 92.5254 41.1793 92.5332 36.4842C92.5411 31.7891 96.2786 27.9892 100.881 27.9968L121.801 28.0318Z" fill="white"/>
<path d="M121.765 49.6714C126.368 49.679 130.093 53.4914 130.085 58.1865C130.077 62.8816 126.34 66.6816 121.737 66.6739L100.817 66.639C96.2141 66.6313 92.4893 62.8189 92.4971 58.1238C92.5049 53.4287 96.2425 49.6288 100.845 49.6364L121.765 49.6714Z" fill="white"/>
<ellipse cx="90.2215" cy="27.1444" rx="3.99409" ry="3.9154" transform="rotate(90.0956 90.2215 27.1444)" fill="#FF9F9F"/>
<ellipse cx="90.1561" cy="66.1443" rx="3.99409" ry="3.9154" transform="rotate(90.0956 90.1561 66.1443)" fill="#FF9F9F"/>
<ellipse cx="93.2742" cy="61.6722" rx="3.99409" ry="3.9154" transform="rotate(90.0956 93.2742 61.6722)" fill="#484848"/>
<ellipse cx="93.3221" cy="32.9149" rx="3.99409" ry="3.9154" transform="rotate(90.0956 93.3221 32.9149)" fill="#484848"/>
<path d="M94.2325 43.3427C94.3355 43.0865 94.2112 42.7953 93.955 42.6923C93.6988 42.5893 93.4076 42.7136 93.3046 42.9698L94.2325 43.3427ZM93.3046 42.9698L91.2963 47.9664L92.2241 48.3394L94.2325 43.3427L93.3046 42.9698Z" fill="#484848"/>
<path d="M93.6411 52.9541C93.7584 53.2041 94.0561 53.3117 94.3061 53.1944C94.5561 53.0772 94.6637 52.7794 94.5464 52.5294L93.6411 52.9541ZM94.5464 52.5294L92.2594 47.654L91.3541 48.0787L93.6411 52.9541L94.5464 52.5294Z" fill="#484848"/>
<path d="M6.80431 40.382C6.97231 40.382 7.14631 40.43 7.32631 40.526C7.51831 40.61 7.66231 40.724 7.75831 40.868L12.1323 47.6L11.2323 47.564L15.7143 40.868C15.9423 40.544 16.2363 40.382 16.5963 40.382C16.8843 40.382 17.1423 40.484 17.3703 40.688C17.5983 40.892 17.7123 41.156 17.7123 41.48V51.902C17.7123 52.214 17.6103 52.478 17.4063 52.694C17.2023 52.898 16.9323 53 16.5963 53C16.2603 53 15.9843 52.898 15.7683 52.694C15.5643 52.478 15.4623 52.214 15.4623 51.902V43.424L16.1643 43.586L12.4923 49.184C12.3843 49.316 12.2463 49.43 12.0783 49.526C11.9223 49.622 11.7603 49.664 11.5923 49.652C11.4363 49.664 11.2743 49.622 11.1063 49.526C10.9503 49.43 10.8183 49.316 10.7103 49.184L7.27231 43.748L7.74031 42.794V51.902C7.74031 52.214 7.64431 52.478 7.45231 52.694C7.26031 52.898 7.00831 53 6.69631 53C6.39631 53 6.15031 52.898 5.95831 52.694C5.76631 52.478 5.67031 52.214 5.67031 51.902V41.48C5.67031 41.18 5.77831 40.922 5.99431 40.706C6.22231 40.49 6.49231 40.382 6.80431 40.382ZM27.3844 43.37C27.6964 43.37 27.9544 43.478 28.1584 43.694C28.3624 43.898 28.4644 44.156 28.4644 44.468V52.118C28.4644 53.222 28.2544 54.098 27.8344 54.746C27.4264 55.406 26.8744 55.88 26.1784 56.168C25.4824 56.456 24.7024 56.6 23.8384 56.6C23.4544 56.6 23.0464 56.57 22.6144 56.51C22.1824 56.45 21.8284 56.36 21.5524 56.24C21.1924 56.084 20.9404 55.886 20.7964 55.646C20.6644 55.418 20.6404 55.172 20.7244 54.908C20.8324 54.56 21.0064 54.32 21.2464 54.188C21.4864 54.068 21.7384 54.056 22.0024 54.152C22.1944 54.212 22.4464 54.302 22.7584 54.422C23.0704 54.554 23.4304 54.62 23.8384 54.62C24.3904 54.62 24.8464 54.542 25.2064 54.386C25.5784 54.242 25.8544 53.99 26.0344 53.63C26.2264 53.282 26.3224 52.802 26.3224 52.19V50.984L26.7004 51.416C26.4964 51.812 26.2384 52.142 25.9264 52.406C25.6264 52.658 25.2664 52.85 24.8464 52.982C24.4264 53.114 23.9464 53.18 23.4064 53.18C22.7704 53.18 22.2124 53.036 21.7324 52.748C21.2644 52.448 20.8984 52.04 20.6344 51.524C20.3704 50.996 20.2384 50.396 20.2384 49.724V44.468C20.2384 44.156 20.3404 43.898 20.5444 43.694C20.7484 43.478 21.0064 43.37 21.3184 43.37C21.6304 43.37 21.8884 43.478 22.0924 43.694C22.2964 43.898 22.3984 44.156 22.3984 44.468V49.076C22.3984 49.856 22.5664 50.408 22.9024 50.732C23.2504 51.044 23.7304 51.2 24.3424 51.2C24.7624 51.2 25.1164 51.122 25.4044 50.966C25.6924 50.798 25.9144 50.558 26.0704 50.246C26.2264 49.922 26.3044 49.532 26.3044 49.076V44.468C26.3044 44.156 26.4064 43.898 26.6104 43.694C26.8144 43.478 27.0724 43.37 27.3844 43.37ZM50.1937 40.346C50.4697 40.346 50.7337 40.454 50.9857 40.67C51.2377 40.874 51.3637 41.156 51.3637 41.516C51.3637 41.624 51.3457 41.744 51.3097 41.876L47.7637 52.316C47.6917 52.532 47.5597 52.7 47.3677 52.82C47.1877 52.928 46.9957 52.988 46.7917 53C46.5877 53 46.3837 52.94 46.1797 52.82C45.9877 52.7 45.8377 52.526 45.7297 52.298L43.0657 46.25L43.2277 46.358L40.5997 52.298C40.4917 52.526 40.3357 52.7 40.1317 52.82C39.9397 52.94 39.7417 53 39.5377 53C39.3457 52.988 39.1537 52.928 38.9617 52.82C38.7697 52.7 38.6377 52.532 38.5657 52.316L35.0197 41.876C34.9837 41.744 34.9657 41.624 34.9657 41.516C34.9657 41.156 35.0917 40.874 35.3437 40.67C35.6077 40.454 35.8777 40.346 36.1537 40.346C36.3817 40.346 36.5917 40.406 36.7837 40.526C36.9877 40.646 37.1257 40.82 37.1977 41.048L40.0597 49.724L39.6637 49.706L42.2197 43.568C42.3157 43.352 42.4537 43.184 42.6337 43.064C42.8137 42.932 43.0177 42.872 43.2457 42.884C43.4737 42.872 43.6777 42.932 43.8577 43.064C44.0377 43.184 44.1697 43.352 44.2537 43.568L46.5937 49.436L46.3057 49.616L49.1317 41.048C49.2037 40.82 49.3417 40.646 49.5457 40.526C49.7497 40.406 49.9657 40.346 50.1937 40.346ZM61.9065 48.194C61.9065 49.178 61.6845 50.048 61.2405 50.804C60.8085 51.548 60.2205 52.13 59.4765 52.55C58.7445 52.97 57.9225 53.18 57.0105 53.18C56.0985 53.18 55.2705 52.97 54.5265 52.55C53.7945 52.13 53.2065 51.548 52.7625 50.804C52.3305 50.048 52.1145 49.178 52.1145 48.194C52.1145 47.21 52.3305 46.346 52.7625 45.602C53.2065 44.846 53.7945 44.258 54.5265 43.838C55.2705 43.406 56.0985 43.19 57.0105 43.19C57.9225 43.19 58.7445 43.406 59.4765 43.838C60.2205 44.258 60.8085 44.846 61.2405 45.602C61.6845 46.346 61.9065 47.21 61.9065 48.194ZM59.7465 48.194C59.7465 47.582 59.6205 47.054 59.3685 46.61C59.1285 46.154 58.7985 45.8 58.3785 45.548C57.9705 45.296 57.5145 45.17 57.0105 45.17C56.5065 45.17 56.0445 45.296 55.6245 45.548C55.2165 45.8 54.8865 46.154 54.6345 46.61C54.3945 47.054 54.2745 47.582 54.2745 48.194C54.2745 48.794 54.3945 49.322 54.6345 49.778C54.8865 50.222 55.2165 50.57 55.6245 50.822C56.0445 51.074 56.5065 51.2 57.0105 51.2C57.5145 51.2 57.9705 51.074 58.3785 50.822C58.7985 50.57 59.1285 50.222 59.3685 49.778C59.6205 49.322 59.7465 48.794 59.7465 48.194ZM64.877 53C64.565 53 64.307 52.898 64.103 52.694C63.899 52.478 63.797 52.214 63.797 51.902V44.468C63.797 44.156 63.899 43.898 64.103 43.694C64.307 43.478 64.565 43.37 64.877 43.37C65.189 43.37 65.447 43.478 65.651 43.694C65.855 43.898 65.957 44.156 65.957 44.468V46.16L65.831 44.954C65.963 44.666 66.131 44.414 66.335 44.198C66.551 43.97 66.791 43.784 67.055 43.64C67.319 43.484 67.601 43.37 67.901 43.298C68.201 43.226 68.501 43.19 68.801 43.19C69.161 43.19 69.461 43.292 69.701 43.496C69.953 43.7 70.079 43.94 70.079 44.216C70.079 44.612 69.977 44.9 69.773 45.08C69.569 45.248 69.347 45.332 69.107 45.332C68.879 45.332 68.669 45.29 68.477 45.206C68.297 45.122 68.087 45.08 67.847 45.08C67.631 45.08 67.409 45.134 67.181 45.242C66.965 45.338 66.761 45.494 66.569 45.71C66.389 45.926 66.239 46.196 66.119 46.52C66.011 46.832 65.957 47.204 65.957 47.636V51.902C65.957 52.214 65.855 52.478 65.651 52.694C65.447 52.898 65.189 53 64.877 53ZM72.8616 53C72.5496 53 72.2916 52.898 72.0876 52.694C71.8836 52.478 71.7816 52.214 71.7816 51.902V40.778C71.7816 40.466 71.8836 40.208 72.0876 40.004C72.2916 39.788 72.5496 39.68 72.8616 39.68C73.1736 39.68 73.4316 39.788 73.6356 40.004C73.8396 40.208 73.9416 40.466 73.9416 40.778V51.902C73.9416 52.214 73.8396 52.478 73.6356 52.694C73.4316 52.898 73.1736 53 72.8616 53ZM78.5856 43.37C78.8616 43.37 79.1016 43.484 79.3056 43.712C79.5096 43.94 79.6116 44.162 79.6116 44.378C79.6116 44.666 79.4676 44.936 79.1796 45.188L73.7616 50.174L73.6716 47.69L77.7936 43.712C78.0216 43.484 78.2856 43.37 78.5856 43.37ZM78.8556 52.982C78.5436 52.982 78.2796 52.862 78.0636 52.622L74.7336 49.094L76.3716 47.582L79.6116 51.11C79.8396 51.35 79.9536 51.62 79.9536 51.92C79.9536 52.232 79.8276 52.49 79.5756 52.694C79.3356 52.886 79.0956 52.982 78.8556 52.982Z" fill="#76C883"/>
</svg>
