<svg width="131" height="101" viewBox="0 0 131 101" fill="none" xmlns="http://www.w3.org/2000/svg">
<path d="M0.15759 5.0324L66.3704 5.1105C92.0796 5.14083 112.896 26.4257 112.866 52.6516C112.835 78.8775 91.9688 100.113 66.2596 100.083L0.0467882 100.005L0.15759 5.0324Z" fill="#99A4DD"/>
<path d="M121.793 33.0318C126.395 33.0394 130.12 36.8518 130.112 41.5469C130.104 46.2421 126.367 50.042 121.764 50.0343L100.844 49.9994C96.2414 49.9917 92.5166 46.1793 92.5244 41.4842C92.5323 36.7891 96.2698 32.9892 100.872 32.9968L121.793 33.0318Z" fill="#99A4DD"/>
<path d="M121.757 54.6714C126.359 54.679 130.084 58.4914 130.076 63.1865C130.068 67.8816 126.331 71.6816 121.728 71.6739L100.808 71.639C96.2053 71.6313 92.4805 67.8189 92.4883 63.1238C92.4961 58.4287 96.2337 54.6288 100.836 54.6364L121.757 54.6714Z" fill="#99A4DD"/>
<path d="M0.166379 0.0323955L66.3791 0.110504C92.0884 0.140832 112.905 21.4257 112.874 47.6516C112.844 73.8775 91.9776 95.1133 66.2684 95.0829L0.0555773 95.0048L0.166379 0.0323955Z" fill="white"/>
<path d="M121.801 28.0318C126.404 28.0394 130.129 31.8518 130.121 36.5469C130.113 41.2421 126.376 45.042 121.773 45.0343L100.853 44.9994C96.2502 44.9917 92.5254 41.1793 92.5332 36.4842C92.5411 31.7891 96.2786 27.9892 100.881 27.9968L121.801 28.0318Z" fill="white"/>
<path d="M121.765 49.6714C126.368 49.679 130.093 53.4914 130.085 58.1865C130.077 62.8816 126.34 66.6816 121.737 66.6739L100.817 66.639C96.2141 66.6313 92.4893 62.8189 92.4971 58.1238C92.5049 53.4287 96.2425 49.6288 100.845 49.6364L121.765 49.6714Z" fill="white"/>
<ellipse cx="90.2215" cy="27.1444" rx="3.99409" ry="3.9154" transform="rotate(90.0956 90.2215 27.1444)" fill="#FF9F9F"/>
<ellipse cx="90.1561" cy="66.1443" rx="3.99409" ry="3.9154" transform="rotate(90.0956 90.1561 66.1443)" fill="#FF9F9F"/>
<ellipse cx="93.2742" cy="61.6722" rx="3.99409" ry="3.9154" transform="rotate(90.0956 93.2742 61.6722)" fill="#484848"/>
<ellipse cx="93.3221" cy="32.9148" rx="3.99409" ry="3.9154" transform="rotate(90.0956 93.3221 32.9148)" fill="#484848"/>
<path d="M94.2325 43.3427C94.3355 43.0865 94.2112 42.7953 93.955 42.6923C93.6988 42.5893 93.4076 42.7136 93.3046 42.9698L94.2325 43.3427ZM93.3046 42.9698L91.2963 47.9664L92.2241 48.3394L94.2325 43.3427L93.3046 42.9698Z" fill="#484848"/>
<path d="M93.6411 52.9541C93.7584 53.2041 94.0561 53.3117 94.3061 53.1944C94.5561 53.0772 94.6637 52.7794 94.5464 52.5294L93.6411 52.9541ZM94.5464 52.5294L92.2594 47.654L91.3541 48.0787L93.6411 52.9541L94.5464 52.5294Z" fill="#484848"/>
<path d="M19.8116 40.4C20.0996 40.4 20.3516 40.508 20.5676 40.724C20.7956 40.928 20.9096 41.186 20.9096 41.498V51.902C20.9096 52.214 20.7956 52.478 20.5676 52.694C20.3396 52.898 20.0756 53 19.7756 53C19.4396 53 19.1696 52.898 18.9656 52.694C18.7616 52.478 18.6596 52.214 18.6596 51.902V41.498C18.6596 41.186 18.7676 40.928 18.9836 40.724C19.1996 40.508 19.4756 40.4 19.8116 40.4ZM27.7856 40.4C28.1216 40.4 28.3916 40.508 28.5956 40.724C28.7996 40.928 28.9016 41.186 28.9016 41.498V51.902C28.9016 52.214 28.7936 52.478 28.5776 52.694C28.3736 52.898 28.0976 53 27.7496 53C27.4616 53 27.2036 52.898 26.9756 52.694C26.7596 52.478 26.6516 52.214 26.6516 51.902V41.498C26.6516 41.186 26.7656 40.928 26.9936 40.724C27.2216 40.508 27.4856 40.4 27.7856 40.4ZM19.7576 45.638H27.7856V47.708H19.7576V45.638ZM40.7591 48.194C40.7591 49.178 40.5371 50.048 40.0931 50.804C39.6611 51.548 39.0731 52.13 38.3291 52.55C37.5971 52.97 36.7751 53.18 35.8631 53.18C34.9511 53.18 34.1231 52.97 33.3791 52.55C32.6471 52.13 32.0591 51.548 31.6151 50.804C31.1831 50.048 30.9671 49.178 30.9671 48.194C30.9671 47.21 31.1831 46.346 31.6151 45.602C32.0591 44.846 32.6471 44.258 33.3791 43.838C34.1231 43.406 34.9511 43.19 35.8631 43.19C36.7751 43.19 37.5971 43.406 38.3291 43.838C39.0731 44.258 39.6611 44.846 40.0931 45.602C40.5371 46.346 40.7591 47.21 40.7591 48.194ZM38.5991 48.194C38.5991 47.582 38.4731 47.054 38.2211 46.61C37.9811 46.154 37.6511 45.8 37.2311 45.548C36.8231 45.296 36.3671 45.17 35.8631 45.17C35.3591 45.17 34.8971 45.296 34.4771 45.548C34.0691 45.8 33.7391 46.154 33.4871 46.61C33.2471 47.054 33.1271 47.582 33.1271 48.194C33.1271 48.794 33.2471 49.322 33.4871 49.778C33.7391 50.222 34.0691 50.57 34.4771 50.822C34.8971 51.074 35.3591 51.2 35.8631 51.2C36.3671 51.2 36.8231 51.074 37.2311 50.822C37.6511 50.57 37.9811 50.222 38.2211 49.778C38.4731 49.322 38.5991 48.794 38.5991 48.194ZM47.7075 43.19C48.6675 43.19 49.3755 43.424 49.8315 43.892C50.2875 44.348 50.5875 44.942 50.7315 45.674L50.4255 45.512L50.5695 45.224C50.7135 44.948 50.9355 44.654 51.2355 44.342C51.5355 44.018 51.8955 43.748 52.3155 43.532C52.7475 43.304 53.2275 43.19 53.7555 43.19C54.6195 43.19 55.2735 43.376 55.7175 43.748C56.1735 44.12 56.4855 44.618 56.6535 45.242C56.8215 45.854 56.9055 46.538 56.9055 47.294V51.902C56.9055 52.214 56.8035 52.478 56.5995 52.694C56.3955 52.898 56.1375 53 55.8255 53C55.5135 53 55.2555 52.898 55.0515 52.694C54.8475 52.478 54.7455 52.214 54.7455 51.902V47.294C54.7455 46.898 54.6975 46.544 54.6015 46.232C54.5055 45.908 54.3315 45.65 54.0795 45.458C53.8275 45.266 53.4675 45.17 52.9995 45.17C52.5435 45.17 52.1535 45.266 51.8295 45.458C51.5055 45.65 51.2595 45.908 51.0915 46.232C50.9355 46.544 50.8575 46.898 50.8575 47.294V51.902C50.8575 52.214 50.7555 52.478 50.5515 52.694C50.3475 52.898 50.0895 53 49.7775 53C49.4655 53 49.2075 52.898 49.0035 52.694C48.7995 52.478 48.6975 52.214 48.6975 51.902V47.294C48.6975 46.898 48.6495 46.544 48.5535 46.232C48.4575 45.908 48.2835 45.65 48.0315 45.458C47.7795 45.266 47.4195 45.17 46.9515 45.17C46.4955 45.17 46.1055 45.266 45.7815 45.458C45.4575 45.65 45.2115 45.908 45.0435 46.232C44.8875 46.544 44.8095 46.898 44.8095 47.294V51.902C44.8095 52.214 44.7075 52.478 44.5035 52.694C44.2995 52.898 44.0415 53 43.7295 53C43.4175 53 43.1595 52.898 42.9555 52.694C42.7515 52.478 42.6495 52.214 42.6495 51.902V44.468C42.6495 44.156 42.7515 43.898 42.9555 43.694C43.1595 43.478 43.4175 43.37 43.7295 43.37C44.0415 43.37 44.2995 43.478 44.5035 43.694C44.7075 43.898 44.8095 44.156 44.8095 44.468V45.242L44.5395 45.188C44.6475 44.984 44.7975 44.768 44.9895 44.54C45.1815 44.3 45.4155 44.078 45.6915 43.874C45.9675 43.67 46.2735 43.508 46.6095 43.388C46.9455 43.256 47.3115 43.19 47.7075 43.19ZM63.7792 53.18C62.7592 53.18 61.8712 52.97 61.1152 52.55C60.3712 52.118 59.7952 51.536 59.3872 50.804C58.9912 50.072 58.7932 49.244 58.7932 48.32C58.7932 47.24 59.0092 46.322 59.4412 45.566C59.8852 44.798 60.4612 44.21 61.1692 43.802C61.8772 43.394 62.6272 43.19 63.4192 43.19C64.0312 43.19 64.6072 43.316 65.1472 43.568C65.6992 43.82 66.1852 44.168 66.6052 44.612C67.0252 45.044 67.3552 45.548 67.5952 46.124C67.8472 46.7 67.9732 47.312 67.9732 47.96C67.9612 48.248 67.8472 48.482 67.6312 48.662C67.4152 48.842 67.1632 48.932 66.8752 48.932H59.9992L59.4592 47.132H66.0652L65.6692 47.492V47.006C65.6452 46.658 65.5192 46.346 65.2912 46.07C65.0752 45.794 64.7992 45.578 64.4632 45.422C64.1392 45.254 63.7912 45.17 63.4192 45.17C63.0592 45.17 62.7232 45.218 62.4112 45.314C62.0992 45.41 61.8292 45.572 61.6012 45.8C61.3732 46.028 61.1932 46.334 61.0612 46.718C60.9292 47.102 60.8632 47.588 60.8632 48.176C60.8632 48.824 60.9952 49.376 61.2592 49.832C61.5352 50.276 61.8832 50.618 62.3032 50.858C62.7352 51.086 63.1912 51.2 63.6712 51.2C64.1152 51.2 64.4692 51.164 64.7332 51.092C64.9972 51.02 65.2072 50.936 65.3632 50.84C65.5312 50.732 65.6812 50.642 65.8132 50.57C66.0292 50.462 66.2332 50.408 66.4252 50.408C66.6892 50.408 66.9052 50.498 67.0732 50.678C67.2532 50.858 67.3432 51.068 67.3432 51.308C67.3432 51.632 67.1752 51.926 66.8392 52.19C66.5272 52.454 66.0892 52.688 65.5252 52.892C64.9612 53.084 64.3792 53.18 63.7792 53.18Z" fill="#99A4DD"/>
</svg>
