<svg width="69" height="68" viewBox="0 0 69 68" fill="none" xmlns="http://www.w3.org/2000/svg">
<path d="M69 34C69 52.7777 53.5538 68 34.5 68C15.4462 68 0 52.7777 0 34C0 15.2223 15.4462 0 34.5 0C53.5538 0 69 15.2223 69 34Z" fill="#FF9F9F"/>
<path d="M24.4545 51.6593H16.0065V27.0148H24.4545V51.6593ZM20.2259 23.6531C17.5245 23.6531 15.3334 21.6262 15.3334 19.179C15.3334 18.0036 15.8489 16.8763 16.7664 16.0451C17.6839 15.2139 18.9284 14.747 20.2259 14.747C21.5235 14.747 22.768 15.2139 23.6855 16.0451C24.603 16.8763 25.1185 18.0036 25.1185 19.179C25.1185 21.6262 22.9264 23.6531 20.2259 23.6531ZM47.6428 51.6593V39.6625C47.6428 36.8034 47.5792 33.1368 43.2506 33.1368C38.8583 33.1368 38.1852 36.2431 38.1852 39.4565V51.6593H29.7463V27.0148H37.8487V30.3766H37.9669C39.0948 28.4403 41.8498 26.3969 45.9601 26.3969C54.51 26.3969 56.0817 31.4972 56.0817 38.1217V51.6593H47.6428Z" fill="#FFF8E7"/>
</svg>
